<?xml version="1.0" encoding="UTF-8" standalone="no"?>
<!-- Created with Inkscape (http://www.inkscape.org/) -->

<svg
   xmlns:dc="http://purl.org/dc/elements/1.1/"
   xmlns:cc="http://creativecommons.org/ns#"
   xmlns:rdf="http://www.w3.org/1999/02/22-rdf-syntax-ns#"
   xmlns:svg="http://www.w3.org/2000/svg"
   xmlns="http://www.w3.org/2000/svg"
   xmlns:sodipodi="http://sodipodi.sourceforge.net/DTD/sodipodi-0.dtd"
   xmlns:inkscape="http://www.inkscape.org/namespaces/inkscape"
   width="50mm"
   height="50mm"
   viewBox="0 0 50 50"
   version="1.1"
   id="svg8"
   inkscape:version="0.92.4 (5da689c313, 2019-01-14)"
   sodipodi:docname="question.svg">
  <defs
     id="defs2" />
  <sodipodi:namedview
     id="base"
     pagecolor="#ffffff"
     bordercolor="#666666"
     borderopacity="1.0"
     inkscape:pageopacity="0.0"
     inkscape:pageshadow="2"
     inkscape:zoom="0.7"
     inkscape:cx="738.67042"
     inkscape:cy="-114.28524"
     inkscape:document-units="mm"
     inkscape:current-layer="layer1"
     showgrid="false"
     inkscape:window-width="1920"
     inkscape:window-height="1017"
     inkscape:window-x="1912"
     inkscape:window-y="-8"
     inkscape:window-maximized="1"
     fit-margin-top="0"
     fit-margin-left="0"
     fit-margin-right="0"
     fit-margin-bottom="0" />
  <metadata
     id="metadata5">
    <rdf:RDF>
      <cc:Work
         rdf:about="">
        <dc:format>image/svg+xml</dc:format>
        <dc:type
           rdf:resource="http://purl.org/dc/dcmitype/StillImage" />
        <dc:title></dc:title>
      </cc:Work>
    </rdf:RDF>
  </metadata>
  <g
     inkscape:label="Layer 1"
     inkscape:groupmode="layer"
     id="layer1"
     transform="translate(-43.089287,-36.845238)">
    <circle
       id="path3713"
       cx="68.089287"
       cy="61.845238"
       style="fill:#666666;stroke-width:0.27777776"
       r="25" />
    <g
       aria-label="?"
       style="font-style:normal;font-weight:normal;font-size:10.58333302px;line-height:1.25;font-family:sans-serif;letter-spacing:0px;word-spacing:0px;fill:#000000;fill-opacity:1;stroke:none;stroke-width:0.26458332"
       id="text3717">
      <path
         d="m 63.858315,68.92431 q 0,-3.5209 0.79582,-5.546623 0.79582,-2.049839 2.580385,-3.545016 1.784566,-1.495176 2.700965,-2.72508 0.940514,-1.254019 0.940514,-2.749196 0,-3.641478 -3.135048,-3.641478 -1.446945,0 -2.339228,1.061093 -0.892283,1.061093 -0.940514,2.869774 h -8.151124 q 0.04823,-4.82315 3.038584,-7.499999 2.990354,-2.700964 8.392282,-2.700964 5.377813,0 8.319935,2.483923 2.966237,2.483922 2.966237,7.065915 0,2.001608 -0.79582,3.641479 -0.795819,1.639871 -2.556269,3.352089 l -2.773312,2.580386 q -1.181672,1.13344 -1.639871,2.339228 -0.458199,1.181672 -0.506431,3.014469 z m -0.988746,7.331189 q 0,-1.784566 1.278135,-2.918006 1.302251,-1.157557 3.231511,-1.157557 1.92926,0 3.207395,1.157557 1.302251,1.13344 1.302251,2.918006 0,1.784565 -1.302251,2.942121 -1.278135,1.133441 -3.207395,1.133441 -1.92926,0 -3.231511,-1.133441 -1.278135,-1.157556 -1.278135,-2.942121 z"
         style="font-style:normal;font-variant:normal;font-weight:bold;font-stretch:normal;font-size:49.38906097px;font-family:Roboto;-inkscape-font-specification:'Roboto Bold';fill:#ffffff;stroke-width:0.26458332"
         id="path34" />
    </g>
    <flowRoot
       xml:space="preserve"
       id="flowRoot37"
       style="fill:black;fill-opacity:1;stroke:none;font-family:sans-serif;font-style:normal;font-weight:normal;font-size:40px;line-height:1.25;letter-spacing:0px;word-spacing:0px"><flowRegion
         id="flowRegion39"><rect
           id="rect41"
           width="101.4602"
           height="80.262596"
           x="49.968369"
           y="67.28521" /></flowRegion><flowPara
         id="flowPara43"></flowPara></flowRoot>    <flowRoot
       xml:space="preserve"
       id="flowRoot45"
       style="fill:black;fill-opacity:1;stroke:none;font-family:sans-serif;font-style:normal;font-weight:normal;font-size:40px;line-height:1.25;letter-spacing:0px;word-spacing:0px"><flowRegion
         id="flowRegion47"><rect
           id="rect49"
           width="130"
           height="107.14286"
           x="55.714287"
           y="31.833521" /></flowRegion><flowPara
         id="flowPara51"></flowPara></flowRoot>  </g>
</svg>
