<svg xmlns="http://www.w3.org/2000/svg" width="188.976" height="188.976" viewBox="0 0 50 50"><circle cx="25" cy="25" r="25" fill="#666"/><path d="M20.77 32.08q0-3.52.796-5.547.796-2.05 2.58-3.545 1.785-1.495 2.7-2.725.94-1.254.94-2.75 0-3.64-3.135-3.64-1.447 0-2.34 1.06-.892 1.06-.94 2.87h-8.15q.048-4.823 3.04-7.5 3-2.7 8.392-2.7 5.378 0 8.32 2.484 2.966 2.484 2.966 7.066 0 2.002-.796 3.64-.796 1.64-2.556 3.352l-2.773 2.58q-1.182 1.133-1.64 2.34-.458 1.182-.506 3.014zm-.99 7.33q0-1.785 1.278-2.918 1.302-1.158 3.232-1.158 1.93 0 3.207 1.158Q28.8 37.626 28.8 39.4q0 1.785-1.302 2.942-1.278 1.133-3.207 1.133-1.93 0-3.232-1.133-1.278-1.158-1.278-2.942z" fill="#fff"/></svg>